<mxfile host="app.diagrams.net" modified="2023-08-23T13:10:20.797Z" agent="Mozilla/5.0 (Macintosh; Intel Mac OS X 10_15_7) AppleWebKit/537.36 (KHTML, like Gecko) Chrome/115.0.0.0 Safari/537.36 Edg/115.0.1901.203" version="21.6.8" etag="d4TaxyKmJnRvSP9xuUUg" type="github">
  <diagram name="第 1 页" id="R9pd0UB06vGApPwI5wtJ">
    <mxGraphModel>
      <root>
        <mxCell id="0" />
        <mxCell id="1" parent="0" />
      </root>
    </mxGraphModel>
  </diagram>
</mxfile>
